<svg width="440" height="120" viewBox="444 38 440 120" fill="none" xmlns="http://www.w3.org/2000/svg">
<path d="M490.06 64H500.26L484.28 108.2H470L490.06 64Z" fill="white"/>
<path d="M470 64H480.2L500.26 108.2H485.98L470 64Z" fill="white"/>
<path d="M470 67.672L474.406 71.7112L480.282 64" stroke="white" stroke-width="3.74" stroke-linecap="round" stroke-linejoin="round"/>
<path d="M559.165 101H552.904L562.445 73.3636H569.974L579.501 101H573.24L566.317 79.679H566.102L559.165 101ZM558.774 90.1371H573.564V94.6982H558.774V90.1371ZM591.12 101.405C588.997 101.405 587.171 100.955 585.641 100.055C584.121 99.1468 582.951 97.8873 582.133 96.277C581.323 94.6667 580.918 92.8134 580.918 90.7173C580.918 88.5942 581.328 86.732 582.146 85.1307C582.974 83.5204 584.148 82.2654 585.668 81.3658C587.189 80.4571 588.997 80.0028 591.093 80.0028C592.901 80.0028 594.485 80.3312 595.843 80.9879C597.201 81.6446 598.277 82.5668 599.068 83.7543C599.86 84.9418 600.296 86.3362 600.377 87.9375H594.952C594.799 86.9029 594.395 86.0708 593.738 85.4411C593.09 84.8023 592.24 84.483 591.188 84.483C590.297 84.483 589.519 84.7259 588.853 85.2116C588.196 85.6884 587.683 86.3857 587.315 87.3033C586.946 88.2209 586.761 89.3319 586.761 90.6364C586.761 91.9588 586.941 93.0833 587.301 94.0099C587.67 94.9366 588.187 95.6428 588.853 96.1286C589.519 96.6143 590.297 96.8572 591.188 96.8572C591.844 96.8572 592.433 96.7223 592.955 96.4524C593.486 96.1825 593.922 95.7912 594.264 95.2784C594.615 94.7566 594.844 94.1314 594.952 93.4027H600.377C600.287 94.986 599.855 96.3804 599.082 97.5859C598.317 98.7824 597.26 99.718 595.911 100.393C594.561 101.067 592.964 101.405 591.12 101.405ZM615.083 80.2727V84.5909H602.6V80.2727H615.083ZM605.434 75.3068H611.183V94.6307C611.183 95.1615 611.264 95.5753 611.426 95.8722C611.588 96.16 611.812 96.3625 612.1 96.4794C612.397 96.5964 612.739 96.6548 613.126 96.6548C613.396 96.6548 613.666 96.6323 613.936 96.5874C614.205 96.5334 614.412 96.4929 614.556 96.4659L615.46 100.744C615.173 100.834 614.768 100.937 614.246 101.054C613.724 101.18 613.09 101.256 612.343 101.283C610.958 101.337 609.743 101.153 608.7 100.73C607.665 100.307 606.86 99.6506 606.284 98.7599C605.709 97.8693 605.425 96.7448 605.434 95.3864V75.3068ZM624.738 101.391C623.415 101.391 622.237 101.162 621.202 100.703C620.168 100.235 619.349 99.5471 618.746 98.6385C618.153 97.7209 617.856 96.5784 617.856 95.2109C617.856 94.0594 618.067 93.0923 618.49 92.3097C618.913 91.527 619.488 90.8973 620.217 90.4205C620.946 89.9437 621.773 89.5838 622.7 89.3409C623.636 89.098 624.616 88.9271 625.642 88.8281C626.847 88.7022 627.819 88.5852 628.557 88.4773C629.294 88.3603 629.83 88.1894 630.162 87.9645C630.495 87.7396 630.662 87.4067 630.662 86.9659V86.8849C630.662 86.0303 630.392 85.3691 629.852 84.9013C629.321 84.4335 628.566 84.1996 627.585 84.1996C626.55 84.1996 625.727 84.429 625.116 84.8878C624.504 85.3376 624.099 85.9044 623.901 86.5881L618.584 86.1562C618.854 84.8968 619.385 83.8082 620.177 82.8906C620.968 81.964 621.989 81.2533 623.24 80.7585C624.499 80.2547 625.957 80.0028 627.612 80.0028C628.764 80.0028 629.866 80.1378 630.918 80.4077C631.98 80.6776 632.92 81.0959 633.738 81.6626C634.566 82.2294 635.218 82.9581 635.695 83.8487C636.172 84.7303 636.41 85.7874 636.41 87.0199V101H630.959V98.1257H630.797C630.464 98.7734 630.019 99.3447 629.461 99.8395C628.903 100.325 628.233 100.708 627.45 100.987C626.667 101.256 625.763 101.391 624.738 101.391ZM626.384 97.424C627.23 97.424 627.976 97.2576 628.624 96.9247C629.272 96.5829 629.78 96.1241 630.149 95.5483C630.518 94.9725 630.702 94.3203 630.702 93.5916V91.392C630.522 91.509 630.275 91.617 629.96 91.7159C629.654 91.8059 629.308 91.8913 628.921 91.9723C628.534 92.0443 628.147 92.1117 627.76 92.1747C627.374 92.2287 627.023 92.2782 626.708 92.3232C626.033 92.4221 625.444 92.5795 624.94 92.7955C624.436 93.0114 624.045 93.3037 623.766 93.6726C623.487 94.0324 623.348 94.4822 623.348 95.022C623.348 95.8047 623.631 96.4029 624.198 96.8168C624.774 97.2216 625.502 97.424 626.384 97.424Z" fill="white"/>
<path d="M555.643 123.129V122.058H556.234C556.462 122.058 556.653 122.014 556.807 121.924C556.964 121.835 557.093 121.72 557.195 121.578C557.299 121.437 557.385 121.289 557.453 121.135L557.601 120.784L554.332 113.545H555.57L558.173 119.418L560.555 113.545H561.774L558.506 121.467C558.376 121.763 558.229 122.037 558.062 122.289C557.899 122.541 557.676 122.745 557.393 122.898C557.113 123.052 556.733 123.129 556.253 123.129H555.643ZM562.589 123V115.909H568.166V123H567.076V116.925H563.678V123H562.589ZM570.155 125.659V115.909H571.208V117.036H571.337C571.417 116.912 571.528 116.755 571.67 116.565C571.814 116.371 572.02 116.198 572.288 116.048C572.559 115.894 572.925 115.817 573.387 115.817C573.984 115.817 574.51 115.966 574.966 116.265C575.421 116.563 575.777 116.986 576.032 117.534C576.288 118.082 576.415 118.728 576.415 119.473C576.415 120.224 576.288 120.875 576.032 121.426C575.777 121.974 575.423 122.398 574.97 122.7C574.518 122.998 573.996 123.148 573.405 123.148C572.95 123.148 572.585 123.072 572.311 122.922C572.037 122.768 571.827 122.594 571.679 122.4C571.531 122.203 571.417 122.04 571.337 121.911H571.245V125.659H570.155ZM571.226 119.455C571.226 119.99 571.305 120.462 571.462 120.872C571.619 121.278 571.848 121.597 572.15 121.827C572.451 122.055 572.821 122.169 573.258 122.169C573.713 122.169 574.093 122.049 574.398 121.809C574.706 121.566 574.936 121.24 575.09 120.83C575.247 120.418 575.326 119.959 575.326 119.455C575.326 118.956 575.249 118.507 575.095 118.107C574.944 117.703 574.715 117.385 574.407 117.151C574.102 116.914 573.719 116.795 573.258 116.795C572.814 116.795 572.442 116.908 572.14 117.132C571.839 117.354 571.611 117.665 571.457 118.065C571.303 118.462 571.226 118.925 571.226 119.455ZM580.164 123.166C579.715 123.166 579.307 123.082 578.941 122.912C578.574 122.74 578.283 122.492 578.068 122.169C577.853 121.843 577.745 121.449 577.745 120.987C577.745 120.581 577.825 120.252 577.985 119.999C578.145 119.744 578.359 119.544 578.627 119.399C578.894 119.254 579.19 119.147 579.513 119.076C579.839 119.002 580.167 118.944 580.496 118.901C580.927 118.845 581.276 118.804 581.544 118.776C581.815 118.745 582.012 118.694 582.135 118.624C582.261 118.553 582.324 118.43 582.324 118.254V118.217C582.324 117.762 582.2 117.408 581.95 117.156C581.704 116.903 581.33 116.777 580.829 116.777C580.309 116.777 579.901 116.891 579.605 117.119C579.31 117.346 579.102 117.589 578.982 117.848L577.948 117.479C578.133 117.048 578.379 116.712 578.687 116.472C578.997 116.229 579.336 116.06 579.702 115.964C580.072 115.866 580.435 115.817 580.792 115.817C581.019 115.817 581.281 115.844 581.577 115.9C581.875 115.952 582.163 116.061 582.44 116.228C582.72 116.394 582.952 116.645 583.137 116.98C583.322 117.316 583.414 117.765 583.414 118.328V123H582.324V122.04H582.269C582.195 122.194 582.072 122.358 581.9 122.534C581.727 122.709 581.498 122.858 581.212 122.982C580.926 123.105 580.576 123.166 580.164 123.166ZM580.33 122.188C580.761 122.188 581.124 122.103 581.42 121.934C581.718 121.764 581.943 121.546 582.094 121.278C582.247 121.01 582.324 120.729 582.324 120.433V119.436C582.278 119.491 582.177 119.542 582.02 119.588C581.866 119.632 581.687 119.67 581.484 119.704C581.284 119.735 581.089 119.762 580.898 119.787C580.71 119.808 580.558 119.827 580.441 119.842C580.158 119.879 579.893 119.939 579.647 120.022C579.404 120.102 579.207 120.224 579.056 120.387C578.908 120.547 578.834 120.766 578.834 121.043C578.834 121.421 578.974 121.707 579.254 121.901C579.538 122.092 579.896 122.188 580.33 122.188ZM585.402 123V115.909H588.302C589.065 115.909 589.671 116.081 590.12 116.426C590.57 116.771 590.794 117.226 590.794 117.793C590.794 118.223 590.667 118.557 590.411 118.794C590.156 119.028 589.828 119.187 589.428 119.27C589.69 119.307 589.944 119.399 590.19 119.547C590.439 119.695 590.645 119.898 590.808 120.156C590.971 120.412 591.053 120.726 591.053 121.098C591.053 121.461 590.961 121.786 590.776 122.072C590.591 122.358 590.327 122.585 589.982 122.751C589.637 122.917 589.225 123 588.745 123H585.402ZM586.437 122.003H588.745C589.12 122.003 589.414 121.914 589.627 121.735C589.839 121.557 589.945 121.313 589.945 121.006C589.945 120.639 589.839 120.352 589.627 120.142C589.414 119.93 589.12 119.824 588.745 119.824H586.437V122.003ZM586.437 118.882H588.302C588.594 118.882 588.845 118.842 589.054 118.762C589.263 118.679 589.423 118.562 589.534 118.411C589.648 118.257 589.705 118.076 589.705 117.866C589.705 117.568 589.58 117.334 589.331 117.165C589.082 116.992 588.739 116.906 588.302 116.906H586.437V118.882ZM592.074 123V121.984H592.333C592.545 121.984 592.722 121.943 592.864 121.86C593.005 121.774 593.119 121.624 593.205 121.412C593.295 121.196 593.362 120.898 593.409 120.516C593.458 120.132 593.493 119.642 593.515 119.048L593.644 115.909H598.371V123H597.282V116.925H594.678L594.567 119.455C594.543 120.036 594.49 120.549 594.41 120.992C594.333 121.432 594.215 121.801 594.055 122.1C593.898 122.398 593.689 122.623 593.427 122.774C593.165 122.925 592.838 123 592.444 123H592.074ZM600.37 123V115.909H601.46V123H600.37ZM600.924 114.727C600.712 114.727 600.529 114.655 600.375 114.51C600.224 114.366 600.149 114.192 600.149 113.989C600.149 113.786 600.224 113.612 600.375 113.467C600.529 113.322 600.712 113.25 600.924 113.25C601.137 113.25 601.318 113.322 601.469 113.467C601.623 113.612 601.7 113.786 601.7 113.989C601.7 114.192 601.623 114.366 601.469 114.51C601.318 114.655 601.137 114.727 600.924 114.727ZM608.201 118.956V119.972H604.286V118.956H608.201ZM604.545 115.909V123H603.455V115.909H604.545ZM609.032 115.909V123H607.942V115.909H609.032ZM613.902 123.148C613.237 123.148 612.665 122.991 612.185 122.677C611.705 122.363 611.335 121.931 611.077 121.38C610.818 120.829 610.689 120.199 610.689 119.491C610.689 118.771 610.822 118.136 611.086 117.585C611.354 117.031 611.726 116.598 612.203 116.288C612.684 115.974 613.244 115.817 613.884 115.817C614.382 115.817 614.832 115.909 615.232 116.094C615.632 116.278 615.96 116.537 616.215 116.869C616.471 117.202 616.629 117.589 616.691 118.033H615.601C615.518 117.71 615.333 117.423 615.047 117.174C614.764 116.922 614.382 116.795 613.902 116.795C613.478 116.795 613.105 116.906 612.785 117.128C612.468 117.346 612.22 117.656 612.042 118.056C611.866 118.453 611.779 118.919 611.779 119.455C611.779 120.002 611.865 120.479 612.037 120.886C612.213 121.292 612.459 121.607 612.776 121.832C613.096 122.057 613.471 122.169 613.902 122.169C614.185 122.169 614.442 122.12 614.673 122.021C614.904 121.923 615.099 121.781 615.259 121.597C615.42 121.412 615.533 121.19 615.601 120.932H616.691C616.629 121.35 616.477 121.727 616.234 122.063C615.994 122.395 615.675 122.66 615.278 122.857C614.884 123.051 614.425 123.148 613.902 123.148ZM619.225 118.476H621.256C622.087 118.476 622.723 118.687 623.163 119.108C623.603 119.53 623.823 120.064 623.823 120.71C623.823 121.135 623.725 121.521 623.528 121.869C623.331 122.214 623.041 122.489 622.66 122.695C622.278 122.898 621.81 123 621.256 123H618.283V115.909H619.373V121.984H621.256C621.687 121.984 622.041 121.871 622.318 121.643C622.595 121.415 622.734 121.123 622.734 120.766C622.734 120.39 622.595 120.084 622.318 119.847C622.041 119.61 621.687 119.491 621.256 119.491H619.225V118.476ZM625.482 123V115.909H626.571V118.993H627.291L629.839 115.909H631.243L628.381 119.325L631.28 123H629.876L627.55 120.009H626.571V123H625.482ZM633.553 121.393L636.97 115.909H638.225V123H637.136V117.516L633.738 123H632.464V115.909H633.553V121.393ZM641.31 121.393L644.726 115.909H645.982V123H644.893V117.516L641.495 123H640.221V115.909H641.31V121.393ZM644.006 113.545H645.022C645.022 114.044 644.85 114.452 644.505 114.769C644.16 115.086 643.692 115.244 643.101 115.244C642.52 115.244 642.057 115.086 641.712 114.769C641.37 114.452 641.199 114.044 641.199 113.545H642.215C642.215 113.786 642.281 113.996 642.414 114.178C642.549 114.359 642.778 114.45 643.101 114.45C643.425 114.45 643.655 114.359 643.794 114.178C643.936 113.996 644.006 113.786 644.006 113.545ZM654.515 123.148C653.874 123.148 653.313 122.995 652.83 122.691C652.349 122.386 651.974 121.96 651.703 121.412C651.435 120.864 651.301 120.224 651.301 119.491C651.301 118.753 651.435 118.108 651.703 117.557C651.974 117.006 652.349 116.578 652.83 116.274C653.313 115.969 653.874 115.817 654.515 115.817C655.155 115.817 655.715 115.969 656.195 116.274C656.678 116.578 657.054 117.006 657.321 117.557C657.592 118.108 657.728 118.753 657.728 119.491C657.728 120.224 657.592 120.864 657.321 121.412C657.054 121.96 656.678 122.386 656.195 122.691C655.715 122.995 655.155 123.148 654.515 123.148ZM654.515 122.169C655.001 122.169 655.401 122.044 655.715 121.795C656.029 121.546 656.261 121.218 656.412 120.812C656.563 120.406 656.638 119.965 656.638 119.491C656.638 119.018 656.563 118.576 656.412 118.167C656.261 117.757 656.029 117.426 655.715 117.174C655.401 116.922 655.001 116.795 654.515 116.795C654.028 116.795 653.628 116.922 653.314 117.174C653 117.426 652.768 117.757 652.617 118.167C652.466 118.576 652.391 119.018 652.391 119.491C652.391 119.965 652.466 120.406 652.617 120.812C652.768 121.218 653 121.546 653.314 121.795C653.628 122.044 654.028 122.169 654.515 122.169ZM664.653 113.25L665.207 113.915C664.992 114.124 664.743 114.27 664.46 114.353C664.176 114.436 663.856 114.487 663.499 114.506C663.142 114.524 662.745 114.543 662.308 114.561C661.816 114.58 661.408 114.7 661.085 114.921C660.762 115.143 660.513 115.463 660.337 115.881C660.162 116.3 660.049 116.814 660 117.423H660.092C660.332 116.98 660.665 116.654 661.09 116.445C661.514 116.235 661.97 116.131 662.456 116.131C663.01 116.131 663.509 116.26 663.952 116.518C664.395 116.777 664.746 117.16 665.004 117.668C665.263 118.176 665.392 118.802 665.392 119.547C665.392 120.289 665.26 120.929 664.995 121.467C664.734 122.006 664.366 122.421 663.892 122.714C663.421 123.003 662.868 123.148 662.234 123.148C661.6 123.148 661.045 122.998 660.568 122.7C660.091 122.398 659.72 121.952 659.455 121.361C659.191 120.767 659.058 120.033 659.058 119.159V118.402C659.058 116.823 659.326 115.626 659.862 114.81C660.4 113.995 661.21 113.573 662.29 113.545C662.671 113.533 663.012 113.53 663.31 113.536C663.609 113.542 663.869 113.529 664.09 113.495C664.312 113.461 664.5 113.379 664.653 113.25ZM662.234 122.169C662.662 122.169 663.03 122.061 663.338 121.846C663.649 121.63 663.887 121.327 664.053 120.936C664.22 120.542 664.303 120.079 664.303 119.547C664.303 119.03 664.218 118.59 664.049 118.227C663.883 117.863 663.644 117.586 663.333 117.396C663.022 117.205 662.65 117.109 662.216 117.109C661.899 117.109 661.614 117.163 661.362 117.271C661.11 117.379 660.894 117.537 660.716 117.746C660.537 117.956 660.399 118.211 660.3 118.513C660.205 118.814 660.154 119.159 660.148 119.547C660.148 120.341 660.334 120.976 660.706 121.453C661.079 121.931 661.588 122.169 662.234 122.169ZM666.431 123V121.984H666.689C666.902 121.984 667.079 121.943 667.22 121.86C667.362 121.774 667.476 121.624 667.562 121.412C667.651 121.196 667.719 120.898 667.765 120.516C667.814 120.132 667.85 119.642 667.871 119.048L668 115.909H672.728V123H671.638V116.925H669.035L668.924 119.455C668.899 120.036 668.847 120.549 668.767 120.992C668.69 121.432 668.571 121.801 668.411 122.1C668.254 122.398 668.045 122.623 667.783 122.774C667.522 122.925 667.194 123 666.8 123H666.431ZM674.727 123V115.909H675.816V123H674.727ZM675.281 114.727C675.068 114.727 674.885 114.655 674.731 114.51C674.58 114.366 674.505 114.192 674.505 113.989C674.505 113.786 674.58 113.612 674.731 113.467C674.885 113.322 675.068 113.25 675.281 113.25C675.493 113.25 675.675 113.322 675.825 113.467C675.979 113.612 676.056 113.786 676.056 113.989C676.056 114.192 675.979 114.366 675.825 114.51C675.675 114.655 675.493 114.727 675.281 114.727ZM677.812 123V115.909H678.901V118.993H679.621L682.17 115.909H683.573L680.711 119.325L683.61 123H682.206L679.88 120.009H678.901V123H677.812Z" fill="#99A4B3"/>
<rect width="68" height="68" fill="white" transform="translate(470 64)"/>
</svg>
