<svg width="400" height="120" viewBox="896 38 400 120" fill="none" xmlns="http://www.w3.org/2000/svg">
<path d="M942.06 64H952.26L936.28 108.2H922L942.06 64Z" fill="white"/>
<path d="M922 64H932.2L952.26 108.2H937.98L922 64Z" fill="white"/>
<path d="M922 67.672L926.406 71.7112L932.282 64" stroke="white" stroke-width="3.74" stroke-linecap="round" stroke-linejoin="round"/>
<path d="M1011.17 109H1004.9L1014.44 81.3636H1021.97L1031.5 109H1025.24L1018.32 87.679H1018.1L1011.17 109ZM1010.77 98.1371H1025.56V102.698H1010.77V98.1371ZM1043.12 109.405C1041 109.405 1039.17 108.955 1037.64 108.055C1036.12 107.147 1034.95 105.887 1034.13 104.277C1033.32 102.667 1032.92 100.813 1032.92 98.7173C1032.92 96.5942 1033.33 94.732 1034.15 93.1307C1034.97 91.5204 1036.15 90.2654 1037.67 89.3658C1039.19 88.4571 1041 88.0028 1043.09 88.0028C1044.9 88.0028 1046.48 88.3312 1047.84 88.9879C1049.2 89.6446 1050.28 90.5668 1051.07 91.7543C1051.86 92.9418 1052.3 94.3362 1052.38 95.9375H1046.95C1046.8 94.9029 1046.39 94.0708 1045.74 93.4411C1045.09 92.8023 1044.24 92.483 1043.19 92.483C1042.3 92.483 1041.52 92.7259 1040.85 93.2116C1040.2 93.6884 1039.68 94.3857 1039.31 95.3033C1038.95 96.2209 1038.76 97.3319 1038.76 98.6364C1038.76 99.9588 1038.94 101.083 1039.3 102.01C1039.67 102.937 1040.19 103.643 1040.85 104.129C1041.52 104.614 1042.3 104.857 1043.19 104.857C1043.84 104.857 1044.43 104.722 1044.96 104.452C1045.49 104.183 1045.92 103.791 1046.26 103.278C1046.62 102.757 1046.84 102.131 1046.95 101.403H1052.38C1052.29 102.986 1051.86 104.38 1051.08 105.586C1050.32 106.782 1049.26 107.718 1047.91 108.393C1046.56 109.067 1044.96 109.405 1043.12 109.405ZM1067.08 88.2727V92.5909H1054.6V88.2727H1067.08ZM1057.43 83.3068H1063.18V102.631C1063.18 103.161 1063.26 103.575 1063.43 103.872C1063.59 104.16 1063.81 104.362 1064.1 104.479C1064.4 104.596 1064.74 104.655 1065.13 104.655C1065.4 104.655 1065.67 104.632 1065.94 104.587C1066.21 104.533 1066.41 104.493 1066.56 104.466L1067.46 108.744C1067.17 108.834 1066.77 108.937 1066.25 109.054C1065.72 109.18 1065.09 109.256 1064.34 109.283C1062.96 109.337 1061.74 109.153 1060.7 108.73C1059.67 108.307 1058.86 107.651 1058.28 106.76C1057.71 105.869 1057.43 104.745 1057.43 103.386V83.3068ZM1076.74 109.391C1075.42 109.391 1074.24 109.162 1073.2 108.703C1072.17 108.235 1071.35 107.547 1070.75 106.638C1070.15 105.721 1069.86 104.578 1069.86 103.211C1069.86 102.059 1070.07 101.092 1070.49 100.31C1070.91 99.527 1071.49 98.8973 1072.22 98.4205C1072.95 97.9437 1073.77 97.5838 1074.7 97.3409C1075.64 97.098 1076.62 96.9271 1077.64 96.8281C1078.85 96.7022 1079.82 96.5852 1080.56 96.4773C1081.29 96.3603 1081.83 96.1894 1082.16 95.9645C1082.5 95.7396 1082.66 95.4067 1082.66 94.9659V94.8849C1082.66 94.0303 1082.39 93.3691 1081.85 92.9013C1081.32 92.4335 1080.57 92.1996 1079.59 92.1996C1078.55 92.1996 1077.73 92.429 1077.12 92.8878C1076.5 93.3376 1076.1 93.9044 1075.9 94.5881L1070.58 94.1562C1070.85 92.8968 1071.39 91.8082 1072.18 90.8906C1072.97 89.964 1073.99 89.2533 1075.24 88.7585C1076.5 88.2547 1077.96 88.0028 1079.61 88.0028C1080.76 88.0028 1081.87 88.1378 1082.92 88.4077C1083.98 88.6776 1084.92 89.0959 1085.74 89.6626C1086.57 90.2294 1087.22 90.9581 1087.7 91.8487C1088.17 92.7303 1088.41 93.7874 1088.41 95.0199V109H1082.96V106.126H1082.8C1082.46 106.773 1082.02 107.345 1081.46 107.839C1080.9 108.325 1080.23 108.708 1079.45 108.987C1078.67 109.256 1077.76 109.391 1076.74 109.391ZM1078.38 105.424C1079.23 105.424 1079.98 105.258 1080.62 104.925C1081.27 104.583 1081.78 104.124 1082.15 103.548C1082.52 102.973 1082.7 102.32 1082.7 101.592V99.392C1082.52 99.509 1082.27 99.617 1081.96 99.7159C1081.65 99.8059 1081.31 99.8913 1080.92 99.9723C1080.53 100.044 1080.15 100.112 1079.76 100.175C1079.37 100.229 1079.02 100.278 1078.71 100.323C1078.03 100.422 1077.44 100.58 1076.94 100.795C1076.44 101.011 1076.05 101.304 1075.77 101.673C1075.49 102.032 1075.35 102.482 1075.35 103.022C1075.35 103.805 1075.63 104.403 1076.2 104.817C1076.77 105.222 1077.5 105.424 1078.38 105.424Z" fill="white"/>
<rect width="68" height="68" fill="white" transform="translate(922 64)"/>
</svg>
