<svg width="440" height="120" viewBox="22 38 440 120" fill="none" xmlns="http://www.w3.org/2000/svg">
<path d="M68.06 64H78.26L62.28 108.2H48L68.06 64Z" fill="white"/>
<path d="M48 64H58.2L78.26 108.2H63.98L48 64Z" fill="white"/>
<path d="M48 67.672L52.4064 71.7112L58.2816 64" stroke="white" stroke-width="3.74" stroke-linecap="round" stroke-linejoin="round"/>
<path d="M137.165 101H130.904L140.445 73.3636H147.974L157.501 101H151.24L144.317 79.679H144.102L137.165 101ZM136.774 90.1371H151.564V94.6982H136.774V90.1371ZM169.12 101.405C166.997 101.405 165.171 100.955 163.641 100.055C162.121 99.1468 160.951 97.8873 160.133 96.277C159.323 94.6667 158.918 92.8134 158.918 90.7173C158.918 88.5942 159.328 86.732 160.146 85.1307C160.974 83.5204 162.148 82.2654 163.668 81.3658C165.189 80.4571 166.997 80.0028 169.093 80.0028C170.901 80.0028 172.485 80.3312 173.843 80.9879C175.201 81.6446 176.277 82.5668 177.068 83.7543C177.86 84.9418 178.296 86.3362 178.377 87.9375H172.952C172.799 86.9029 172.395 86.0708 171.738 85.4411C171.09 84.8023 170.24 84.483 169.188 84.483C168.297 84.483 167.519 84.7259 166.853 85.2116C166.196 85.6884 165.683 86.3857 165.315 87.3033C164.946 88.2209 164.761 89.3319 164.761 90.6364C164.761 91.9588 164.941 93.0833 165.301 94.0099C165.67 94.9366 166.187 95.6428 166.853 96.1286C167.519 96.6143 168.297 96.8572 169.188 96.8572C169.844 96.8572 170.433 96.7223 170.955 96.4524C171.486 96.1825 171.922 95.7912 172.264 95.2784C172.615 94.7566 172.844 94.1314 172.952 93.4027H178.377C178.287 94.986 177.855 96.3804 177.082 97.5859C176.317 98.7824 175.26 99.718 173.911 100.393C172.561 101.067 170.964 101.405 169.12 101.405ZM193.083 80.2727V84.5909H180.6V80.2727H193.083ZM183.434 75.3068H189.183V94.6307C189.183 95.1615 189.264 95.5753 189.426 95.8722C189.588 96.16 189.812 96.3625 190.1 96.4794C190.397 96.5964 190.739 96.6548 191.126 96.6548C191.396 96.6548 191.666 96.6323 191.936 96.5874C192.205 96.5334 192.412 96.4929 192.556 96.4659L193.46 100.744C193.173 100.834 192.768 100.937 192.246 101.054C191.724 101.18 191.09 101.256 190.343 101.283C188.958 101.337 187.743 101.153 186.7 100.73C185.665 100.307 184.86 99.6506 184.284 98.7599C183.709 97.8693 183.425 96.7448 183.434 95.3864V75.3068ZM202.738 101.391C201.415 101.391 200.237 101.162 199.202 100.703C198.168 100.235 197.349 99.5471 196.746 98.6385C196.153 97.7209 195.856 96.5784 195.856 95.2109C195.856 94.0594 196.067 93.0923 196.49 92.3097C196.913 91.527 197.488 90.8973 198.217 90.4205C198.946 89.9437 199.773 89.5838 200.7 89.3409C201.636 89.098 202.616 88.9271 203.642 88.8281C204.847 88.7022 205.819 88.5852 206.557 88.4773C207.294 88.3603 207.83 88.1894 208.162 87.9645C208.495 87.7396 208.662 87.4067 208.662 86.9659V86.8849C208.662 86.0303 208.392 85.3691 207.852 84.9013C207.321 84.4335 206.566 84.1996 205.585 84.1996C204.55 84.1996 203.727 84.429 203.116 84.8878C202.504 85.3376 202.099 85.9044 201.901 86.5881L196.584 86.1562C196.854 84.8968 197.385 83.8082 198.177 82.8906C198.968 81.964 199.989 81.2533 201.24 80.7585C202.499 80.2547 203.957 80.0028 205.612 80.0028C206.764 80.0028 207.866 80.1378 208.918 80.4077C209.98 80.6776 210.92 81.0959 211.738 81.6626C212.566 82.2294 213.218 82.9581 213.695 83.8487C214.172 84.7303 214.41 85.7874 214.41 87.0199V101H208.959V98.1257H208.797C208.464 98.7734 208.019 99.3447 207.461 99.8395C206.903 100.325 206.233 100.708 205.45 100.987C204.667 101.256 203.763 101.391 202.738 101.391ZM204.384 97.424C205.23 97.424 205.976 97.2576 206.624 96.9247C207.272 96.5829 207.78 96.1241 208.149 95.5483C208.518 94.9725 208.702 94.3203 208.702 93.5916V91.392C208.522 91.509 208.275 91.617 207.96 91.7159C207.654 91.8059 207.308 91.8913 206.921 91.9723C206.534 92.0443 206.147 92.1117 205.76 92.1747C205.374 92.2287 205.023 92.2782 204.708 92.3232C204.033 92.4221 203.444 92.5795 202.94 92.7955C202.436 93.0114 202.045 93.3037 201.766 93.6726C201.487 94.0324 201.348 94.4822 201.348 95.022C201.348 95.8047 201.631 96.4029 202.198 96.8168C202.774 97.2216 203.502 97.424 204.384 97.424Z" fill="#1A1E28"/>
<path d="M133.643 123.129V122.058H134.234C134.462 122.058 134.653 122.014 134.807 121.924C134.964 121.835 135.093 121.72 135.195 121.578C135.299 121.437 135.385 121.289 135.453 121.135L135.601 120.784L132.332 113.545H133.57L136.173 119.418L138.555 113.545H139.774L136.506 121.467C136.376 121.763 136.229 122.037 136.062 122.289C135.899 122.541 135.676 122.745 135.393 122.898C135.113 123.052 134.733 123.129 134.253 123.129H133.643ZM140.589 123V115.909H146.166V123H145.076V116.925H141.678V123H140.589ZM148.155 125.659V115.909H149.208V117.036H149.337C149.417 116.912 149.528 116.755 149.67 116.565C149.814 116.371 150.02 116.198 150.288 116.048C150.559 115.894 150.925 115.817 151.387 115.817C151.984 115.817 152.51 115.966 152.966 116.265C153.421 116.563 153.777 116.986 154.032 117.534C154.288 118.082 154.415 118.728 154.415 119.473C154.415 120.224 154.288 120.875 154.032 121.426C153.777 121.974 153.423 122.398 152.97 122.7C152.518 122.998 151.996 123.148 151.405 123.148C150.95 123.148 150.585 123.072 150.311 122.922C150.037 122.768 149.827 122.594 149.679 122.4C149.531 122.203 149.417 122.04 149.337 121.911H149.245V125.659H148.155ZM149.226 119.455C149.226 119.99 149.305 120.462 149.462 120.872C149.619 121.278 149.848 121.597 150.15 121.827C150.451 122.055 150.821 122.169 151.258 122.169C151.713 122.169 152.093 122.049 152.398 121.809C152.706 121.566 152.936 121.24 153.09 120.83C153.247 120.418 153.326 119.959 153.326 119.455C153.326 118.956 153.249 118.507 153.095 118.107C152.944 117.703 152.715 117.385 152.407 117.151C152.102 116.914 151.719 116.795 151.258 116.795C150.814 116.795 150.442 116.908 150.14 117.132C149.839 117.354 149.611 117.665 149.457 118.065C149.303 118.462 149.226 118.925 149.226 119.455ZM158.164 123.166C157.715 123.166 157.307 123.082 156.941 122.912C156.574 122.74 156.283 122.492 156.068 122.169C155.853 121.843 155.745 121.449 155.745 120.987C155.745 120.581 155.825 120.252 155.985 119.999C156.145 119.744 156.359 119.544 156.627 119.399C156.894 119.254 157.19 119.147 157.513 119.076C157.839 119.002 158.167 118.944 158.496 118.901C158.927 118.845 159.276 118.804 159.544 118.776C159.815 118.745 160.012 118.694 160.135 118.624C160.261 118.553 160.324 118.43 160.324 118.254V118.217C160.324 117.762 160.2 117.408 159.95 117.156C159.704 116.903 159.33 116.777 158.829 116.777C158.309 116.777 157.901 116.891 157.605 117.119C157.31 117.346 157.102 117.589 156.982 117.848L155.948 117.479C156.133 117.048 156.379 116.712 156.687 116.472C156.997 116.229 157.336 116.06 157.702 115.964C158.072 115.866 158.435 115.817 158.792 115.817C159.019 115.817 159.281 115.844 159.577 115.9C159.875 115.952 160.163 116.061 160.44 116.228C160.72 116.394 160.952 116.645 161.137 116.98C161.322 117.316 161.414 117.765 161.414 118.328V123H160.324V122.04H160.269C160.195 122.194 160.072 122.358 159.9 122.534C159.727 122.709 159.498 122.858 159.212 122.982C158.926 123.105 158.576 123.166 158.164 123.166ZM158.33 122.188C158.761 122.188 159.124 122.103 159.42 121.934C159.718 121.764 159.943 121.546 160.094 121.278C160.247 121.01 160.324 120.729 160.324 120.433V119.436C160.278 119.491 160.177 119.542 160.02 119.588C159.866 119.632 159.687 119.67 159.484 119.704C159.284 119.735 159.089 119.762 158.898 119.787C158.71 119.808 158.558 119.827 158.441 119.842C158.158 119.879 157.893 119.939 157.647 120.022C157.404 120.102 157.207 120.224 157.056 120.387C156.908 120.547 156.834 120.766 156.834 121.043C156.834 121.421 156.974 121.707 157.254 121.901C157.538 122.092 157.896 122.188 158.33 122.188ZM163.402 123V115.909H166.302C167.065 115.909 167.671 116.081 168.12 116.426C168.57 116.771 168.794 117.226 168.794 117.793C168.794 118.223 168.667 118.557 168.411 118.794C168.156 119.028 167.828 119.187 167.428 119.27C167.69 119.307 167.944 119.399 168.19 119.547C168.439 119.695 168.645 119.898 168.808 120.156C168.971 120.412 169.053 120.726 169.053 121.098C169.053 121.461 168.961 121.786 168.776 122.072C168.591 122.358 168.327 122.585 167.982 122.751C167.637 122.917 167.225 123 166.745 123H163.402ZM164.437 122.003H166.745C167.12 122.003 167.414 121.914 167.627 121.735C167.839 121.557 167.945 121.313 167.945 121.006C167.945 120.639 167.839 120.352 167.627 120.142C167.414 119.93 167.12 119.824 166.745 119.824H164.437V122.003ZM164.437 118.882H166.302C166.594 118.882 166.845 118.842 167.054 118.762C167.263 118.679 167.423 118.562 167.534 118.411C167.648 118.257 167.705 118.076 167.705 117.866C167.705 117.568 167.58 117.334 167.331 117.165C167.082 116.992 166.739 116.906 166.302 116.906H164.437V118.882ZM170.074 123V121.984H170.333C170.545 121.984 170.722 121.943 170.864 121.86C171.005 121.774 171.119 121.624 171.205 121.412C171.295 121.196 171.362 120.898 171.409 120.516C171.458 120.132 171.493 119.642 171.515 119.048L171.644 115.909H176.371V123H175.282V116.925H172.678L172.567 119.455C172.543 120.036 172.49 120.549 172.41 120.992C172.333 121.432 172.215 121.801 172.055 122.1C171.898 122.398 171.689 122.623 171.427 122.774C171.165 122.925 170.838 123 170.444 123H170.074ZM178.37 123V115.909H179.46V123H178.37ZM178.924 114.727C178.712 114.727 178.529 114.655 178.375 114.51C178.224 114.366 178.149 114.192 178.149 113.989C178.149 113.786 178.224 113.612 178.375 113.467C178.529 113.322 178.712 113.25 178.924 113.25C179.137 113.25 179.318 113.322 179.469 113.467C179.623 113.612 179.7 113.786 179.7 113.989C179.7 114.192 179.623 114.366 179.469 114.51C179.318 114.655 179.137 114.727 178.924 114.727ZM186.201 118.956V119.972H182.286V118.956H186.201ZM182.545 115.909V123H181.455V115.909H182.545ZM187.032 115.909V123H185.942V115.909H187.032ZM191.902 123.148C191.237 123.148 190.665 122.991 190.185 122.677C189.705 122.363 189.335 121.931 189.077 121.38C188.818 120.829 188.689 120.199 188.689 119.491C188.689 118.771 188.822 118.136 189.086 117.585C189.354 117.031 189.726 116.598 190.203 116.288C190.684 115.974 191.244 115.817 191.884 115.817C192.382 115.817 192.832 115.909 193.232 116.094C193.632 116.278 193.96 116.537 194.215 116.869C194.471 117.202 194.629 117.589 194.691 118.033H193.601C193.518 117.71 193.333 117.423 193.047 117.174C192.764 116.922 192.382 116.795 191.902 116.795C191.478 116.795 191.105 116.906 190.785 117.128C190.468 117.346 190.22 117.656 190.042 118.056C189.866 118.453 189.779 118.919 189.779 119.455C189.779 120.002 189.865 120.479 190.037 120.886C190.213 121.292 190.459 121.607 190.776 121.832C191.096 122.057 191.471 122.169 191.902 122.169C192.185 122.169 192.442 122.12 192.673 122.021C192.904 121.923 193.099 121.781 193.259 121.597C193.42 121.412 193.533 121.19 193.601 120.932H194.691C194.629 121.35 194.477 121.727 194.234 122.063C193.994 122.395 193.675 122.66 193.278 122.857C192.884 123.051 192.425 123.148 191.902 123.148ZM197.225 118.476H199.256C200.087 118.476 200.723 118.687 201.163 119.108C201.603 119.53 201.823 120.064 201.823 120.71C201.823 121.135 201.725 121.521 201.528 121.869C201.331 122.214 201.041 122.489 200.66 122.695C200.278 122.898 199.81 123 199.256 123H196.283V115.909H197.373V121.984H199.256C199.687 121.984 200.041 121.871 200.318 121.643C200.595 121.415 200.734 121.123 200.734 120.766C200.734 120.39 200.595 120.084 200.318 119.847C200.041 119.61 199.687 119.491 199.256 119.491H197.225V118.476ZM203.482 123V115.909H204.571V118.993H205.291L207.839 115.909H209.243L206.381 119.325L209.28 123H207.876L205.55 120.009H204.571V123H203.482ZM211.553 121.393L214.97 115.909H216.225V123H215.136V117.516L211.738 123H210.464V115.909H211.553V121.393ZM219.31 121.393L222.726 115.909H223.982V123H222.893V117.516L219.495 123H218.221V115.909H219.31V121.393ZM222.006 113.545H223.022C223.022 114.044 222.85 114.452 222.505 114.769C222.16 115.086 221.692 115.244 221.101 115.244C220.52 115.244 220.057 115.086 219.712 114.769C219.37 114.452 219.199 114.044 219.199 113.545H220.215C220.215 113.786 220.281 113.996 220.414 114.178C220.549 114.359 220.778 114.45 221.101 114.45C221.425 114.45 221.655 114.359 221.794 114.178C221.936 113.996 222.006 113.786 222.006 113.545ZM232.515 123.148C231.874 123.148 231.313 122.995 230.83 122.691C230.349 122.386 229.974 121.96 229.703 121.412C229.435 120.864 229.301 120.224 229.301 119.491C229.301 118.753 229.435 118.108 229.703 117.557C229.974 117.006 230.349 116.578 230.83 116.274C231.313 115.969 231.874 115.817 232.515 115.817C233.155 115.817 233.715 115.969 234.195 116.274C234.678 116.578 235.054 117.006 235.321 117.557C235.592 118.108 235.728 118.753 235.728 119.491C235.728 120.224 235.592 120.864 235.321 121.412C235.054 121.96 234.678 122.386 234.195 122.691C233.715 122.995 233.155 123.148 232.515 123.148ZM232.515 122.169C233.001 122.169 233.401 122.044 233.715 121.795C234.029 121.546 234.261 121.218 234.412 120.812C234.563 120.406 234.638 119.965 234.638 119.491C234.638 119.018 234.563 118.576 234.412 118.167C234.261 117.757 234.029 117.426 233.715 117.174C233.401 116.922 233.001 116.795 232.515 116.795C232.028 116.795 231.628 116.922 231.314 117.174C231 117.426 230.768 117.757 230.617 118.167C230.466 118.576 230.391 119.018 230.391 119.491C230.391 119.965 230.466 120.406 230.617 120.812C230.768 121.218 231 121.546 231.314 121.795C231.628 122.044 232.028 122.169 232.515 122.169ZM242.653 113.25L243.207 113.915C242.992 114.124 242.743 114.27 242.46 114.353C242.176 114.436 241.856 114.487 241.499 114.506C241.142 114.524 240.745 114.543 240.308 114.561C239.816 114.58 239.408 114.7 239.085 114.921C238.762 115.143 238.513 115.463 238.337 115.881C238.162 116.3 238.049 116.814 238 117.423H238.092C238.332 116.98 238.665 116.654 239.09 116.445C239.514 116.235 239.97 116.131 240.456 116.131C241.01 116.131 241.509 116.26 241.952 116.518C242.395 116.777 242.746 117.16 243.004 117.668C243.263 118.176 243.392 118.802 243.392 119.547C243.392 120.289 243.26 120.929 242.995 121.467C242.734 122.006 242.366 122.421 241.892 122.714C241.421 123.003 240.868 123.148 240.234 123.148C239.6 123.148 239.045 122.998 238.568 122.7C238.091 122.398 237.72 121.952 237.455 121.361C237.191 120.767 237.058 120.033 237.058 119.159V118.402C237.058 116.823 237.326 115.626 237.862 114.81C238.4 113.995 239.21 113.573 240.29 113.545C240.671 113.533 241.012 113.53 241.31 113.536C241.609 113.542 241.869 113.529 242.09 113.495C242.312 113.461 242.5 113.379 242.653 113.25ZM240.234 122.169C240.662 122.169 241.03 122.061 241.338 121.846C241.649 121.63 241.887 121.327 242.053 120.936C242.22 120.542 242.303 120.079 242.303 119.547C242.303 119.03 242.218 118.59 242.049 118.227C241.883 117.863 241.644 117.586 241.333 117.396C241.022 117.205 240.65 117.109 240.216 117.109C239.899 117.109 239.614 117.163 239.362 117.271C239.11 117.379 238.894 117.537 238.716 117.746C238.537 117.956 238.399 118.211 238.3 118.513C238.205 118.814 238.154 119.159 238.148 119.547C238.148 120.341 238.334 120.976 238.706 121.453C239.079 121.931 239.588 122.169 240.234 122.169ZM244.431 123V121.984H244.689C244.902 121.984 245.079 121.943 245.22 121.86C245.362 121.774 245.476 121.624 245.562 121.412C245.651 121.196 245.719 120.898 245.765 120.516C245.814 120.132 245.85 119.642 245.871 119.048L246 115.909H250.728V123H249.638V116.925H247.035L246.924 119.455C246.899 120.036 246.847 120.549 246.767 120.992C246.69 121.432 246.571 121.801 246.411 122.1C246.254 122.398 246.045 122.623 245.783 122.774C245.522 122.925 245.194 123 244.8 123H244.431ZM252.727 123V115.909H253.816V123H252.727ZM253.281 114.727C253.068 114.727 252.885 114.655 252.731 114.51C252.58 114.366 252.505 114.192 252.505 113.989C252.505 113.786 252.58 113.612 252.731 113.467C252.885 113.322 253.068 113.25 253.281 113.25C253.493 113.25 253.675 113.322 253.825 113.467C253.979 113.612 254.056 113.786 254.056 113.989C254.056 114.192 253.979 114.366 253.825 114.51C253.675 114.655 253.493 114.727 253.281 114.727ZM255.812 123V115.909H256.901V118.993H257.621L260.17 115.909H261.573L258.711 119.325L261.61 123H260.206L257.88 120.009H256.901V123H255.812Z" fill="#737E90"/>
<rect width="68" height="68" fill="white" transform="translate(48 64)"/>
</svg>
