<svg width="220" height="78" viewBox="276 832 220 78" fill="none" xmlns="http://www.w3.org/2000/svg">
<path d="M301.8 851H307.8L298.4 877H290L301.8 851Z" fill="white"/>
<path d="M290 851H296L307.8 877H299.4L290 851Z" fill="white"/>
<path d="M290 853.16L292.592 855.536L296.048 851" stroke="white" stroke-width="2.2" stroke-linecap="round" stroke-linejoin="round"/>
<path d="M343.394 869H340.428L344.947 855.909H348.514L353.027 869H350.061L346.782 858.901H346.68L343.394 869ZM343.209 863.854H350.214V866.015H343.209V863.854ZM358.531 869.192C357.525 869.192 356.66 868.979 355.935 868.553C355.215 868.122 354.661 867.526 354.273 866.763C353.89 866 353.698 865.122 353.698 864.129C353.698 863.124 353.892 862.241 354.28 861.483C354.672 860.72 355.228 860.126 355.948 859.7C356.668 859.269 357.525 859.054 358.518 859.054C359.374 859.054 360.124 859.21 360.768 859.521C361.411 859.832 361.92 860.268 362.295 860.831C362.67 861.393 362.877 862.054 362.915 862.812H360.346C360.273 862.322 360.082 861.928 359.771 861.63C359.464 861.327 359.061 861.176 358.562 861.176C358.141 861.176 357.772 861.291 357.457 861.521C357.146 861.747 356.903 862.077 356.728 862.512C356.553 862.947 356.466 863.473 356.466 864.091C356.466 864.717 356.551 865.25 356.722 865.689C356.896 866.128 357.141 866.462 357.457 866.692C357.772 866.923 358.141 867.038 358.562 867.038C358.874 867.038 359.153 866.974 359.4 866.846C359.651 866.718 359.858 866.533 360.02 866.29C360.186 866.043 360.295 865.746 360.346 865.401H362.915C362.873 866.151 362.668 866.812 362.302 867.383C361.94 867.95 361.439 868.393 360.8 868.712C360.161 869.032 359.404 869.192 358.531 869.192ZM369.881 859.182V861.227H363.969V859.182H369.881ZM365.311 856.83H368.034V865.983C368.034 866.234 368.072 866.43 368.149 866.571C368.226 866.707 368.332 866.803 368.469 866.859C368.609 866.914 368.771 866.942 368.954 866.942C369.082 866.942 369.21 866.931 369.338 866.91C369.466 866.884 369.564 866.865 369.632 866.852L370.06 868.879C369.924 868.921 369.732 868.97 369.485 869.026C369.238 869.085 368.937 869.121 368.584 869.134C367.927 869.16 367.352 869.072 366.858 868.872C366.368 868.672 365.986 868.361 365.714 867.939C365.441 867.517 365.307 866.984 365.311 866.341V856.83ZM374.455 869.185C373.828 869.185 373.27 869.077 372.78 868.859C372.29 868.638 371.902 868.312 371.617 867.881C371.335 867.447 371.195 866.906 371.195 866.258C371.195 865.712 371.295 865.254 371.495 864.884C371.695 864.513 371.968 864.214 372.313 863.989C372.659 863.763 373.051 863.592 373.49 863.477C373.933 863.362 374.397 863.281 374.883 863.234C375.454 863.175 375.914 863.119 376.264 863.068C376.613 863.013 376.867 862.932 377.024 862.825C377.182 862.719 377.261 862.561 377.261 862.352V862.314C377.261 861.909 377.133 861.596 376.877 861.374C376.626 861.153 376.268 861.042 375.803 861.042C375.313 861.042 374.923 861.151 374.634 861.368C374.344 861.581 374.152 861.849 374.058 862.173L371.54 861.969C371.668 861.372 371.919 860.857 372.294 860.422C372.669 859.983 373.153 859.646 373.745 859.412C374.342 859.173 375.032 859.054 375.816 859.054C376.362 859.054 376.884 859.118 377.382 859.246C377.885 859.374 378.33 859.572 378.718 859.84C379.11 860.109 379.419 860.454 379.645 860.876C379.871 861.293 379.984 861.794 379.984 862.378V869H377.401V867.638H377.325C377.167 867.945 376.956 868.216 376.692 868.45C376.428 868.68 376.11 868.862 375.74 868.994C375.369 869.121 374.941 869.185 374.455 869.185ZM375.235 867.306C375.635 867.306 375.989 867.227 376.296 867.07C376.602 866.908 376.843 866.69 377.018 866.418C377.193 866.145 377.28 865.836 377.28 865.491V864.449C377.195 864.504 377.078 864.555 376.928 864.602C376.784 864.645 376.619 864.685 376.436 864.724C376.253 864.758 376.07 864.79 375.887 864.82C375.703 864.845 375.537 864.869 375.388 864.89C375.068 864.937 374.789 865.011 374.551 865.114C374.312 865.216 374.127 865.354 373.994 865.529C373.862 865.7 373.796 865.913 373.796 866.168C373.796 866.539 373.931 866.822 374.199 867.018C374.472 867.21 374.817 867.306 375.235 867.306Z" fill="white"/>
<path d="M341.264 885.099V884.276H341.719C341.894 884.276 342.041 884.241 342.159 884.173C342.28 884.104 342.379 884.015 342.457 883.906C342.538 883.797 342.604 883.684 342.656 883.565L342.77 883.295L340.256 877.727H341.207L343.21 882.244L345.043 877.727H345.98L343.466 883.821C343.366 884.048 343.253 884.259 343.125 884.453C343 884.647 342.828 884.804 342.61 884.922C342.395 885.04 342.102 885.099 341.733 885.099H341.264ZM346.607 885V879.545H350.897V885H350.059V880.327H347.445V885H346.607ZM352.427 887.045V879.545H353.237V880.412H353.336C353.398 880.317 353.483 880.196 353.592 880.05C353.703 879.901 353.862 879.768 354.068 879.652C354.276 879.534 354.558 879.474 354.913 879.474C355.372 879.474 355.777 879.589 356.127 879.819C356.478 880.049 356.751 880.374 356.948 880.795C357.144 881.217 357.243 881.714 357.243 882.287C357.243 882.865 357.144 883.365 356.948 883.789C356.751 884.21 356.479 884.537 356.131 884.769C355.783 884.999 355.382 885.114 354.927 885.114C354.577 885.114 354.296 885.056 354.086 884.94C353.875 884.821 353.713 884.687 353.599 884.538C353.485 884.387 353.398 884.261 353.336 884.162H353.265V887.045H352.427ZM353.251 882.273C353.251 882.685 353.311 883.048 353.432 883.363C353.553 883.675 353.729 883.92 353.961 884.098C354.193 884.273 354.477 884.361 354.814 884.361C355.164 884.361 355.456 884.268 355.691 884.084C355.927 883.897 356.105 883.646 356.223 883.331C356.344 883.014 356.404 882.661 356.404 882.273C356.404 881.889 356.345 881.544 356.227 881.236C356.111 880.926 355.935 880.681 355.698 880.501C355.463 880.318 355.169 880.227 354.814 880.227C354.473 880.227 354.186 880.314 353.954 880.487C353.722 880.657 353.547 880.896 353.429 881.204C353.31 881.509 353.251 881.866 353.251 882.273ZM360.126 885.128C359.78 885.128 359.467 885.063 359.185 884.933C358.903 884.8 358.68 884.609 358.514 884.361C358.348 884.11 358.265 883.807 358.265 883.452C358.265 883.139 358.327 882.886 358.45 882.692C358.573 882.495 358.738 882.341 358.944 882.23C359.15 882.119 359.377 882.036 359.625 881.982C359.876 881.925 360.128 881.88 360.382 881.847C360.713 881.804 360.982 881.772 361.188 881.751C361.396 881.727 361.548 881.688 361.642 881.634C361.739 881.579 361.788 881.484 361.788 881.349V881.321C361.788 880.971 361.692 880.698 361.5 880.504C361.311 880.31 361.023 880.213 360.637 880.213C360.237 880.213 359.924 880.301 359.696 880.476C359.469 880.651 359.309 880.838 359.217 881.037L358.422 880.753C358.564 880.421 358.753 880.163 358.99 879.979C359.229 879.792 359.489 879.661 359.771 879.588C360.055 879.512 360.334 879.474 360.609 879.474C360.784 879.474 360.985 879.496 361.213 879.538C361.442 879.579 361.664 879.663 361.877 879.79C362.092 879.918 362.271 880.111 362.413 880.369C362.555 880.627 362.626 880.973 362.626 881.406V885H361.788V884.261H361.745C361.689 884.38 361.594 884.506 361.461 884.641C361.329 884.776 361.152 884.891 360.932 884.986C360.712 885.08 360.443 885.128 360.126 885.128ZM360.254 884.375C360.585 884.375 360.865 884.31 361.092 884.18C361.322 884.049 361.494 883.881 361.61 883.675C361.729 883.469 361.788 883.253 361.788 883.026V882.259C361.752 882.301 361.674 882.34 361.554 882.376C361.435 882.409 361.298 882.438 361.142 882.464C360.988 882.488 360.837 882.509 360.691 882.528C360.546 882.545 360.429 882.559 360.339 882.571C360.121 882.599 359.918 882.646 359.728 882.71C359.541 882.771 359.39 882.865 359.274 882.99C359.16 883.113 359.103 883.281 359.103 883.494C359.103 883.786 359.211 884.006 359.426 884.155C359.644 884.302 359.92 884.375 360.254 884.375ZM364.156 885V879.545H366.386C366.973 879.545 367.439 879.678 367.785 879.943C368.131 880.208 368.303 880.559 368.303 880.994C368.303 881.326 368.205 881.583 368.009 881.765C367.812 881.945 367.56 882.067 367.252 882.131C367.454 882.159 367.649 882.23 367.838 882.344C368.03 882.457 368.189 882.614 368.314 882.812C368.44 883.009 368.502 883.25 368.502 883.537C368.502 883.816 368.431 884.066 368.289 884.286C368.147 884.506 367.944 884.68 367.678 884.808C367.413 884.936 367.096 885 366.727 885H364.156ZM364.951 884.233H366.727C367.016 884.233 367.242 884.164 367.405 884.027C367.568 883.89 367.65 883.703 367.65 883.466C367.65 883.184 367.568 882.963 367.405 882.802C367.242 882.638 367.016 882.557 366.727 882.557H364.951V884.233ZM364.951 881.832H366.386C366.611 881.832 366.804 881.802 366.965 881.74C367.126 881.676 367.249 881.586 367.334 881.47C367.422 881.352 367.465 881.212 367.465 881.051C367.465 880.821 367.369 880.642 367.178 880.511C366.986 880.379 366.722 880.312 366.386 880.312H364.951V881.832ZM369.288 885V884.219H369.487C369.65 884.219 369.786 884.187 369.895 884.123C370.004 884.057 370.092 883.942 370.158 883.778C370.227 883.613 370.279 883.383 370.314 883.089C370.352 882.794 370.379 882.417 370.396 881.96L370.495 879.545H374.132V885H373.294V880.327H371.291L371.206 882.273C371.187 882.72 371.146 883.114 371.085 883.455C371.026 883.794 370.935 884.078 370.811 884.308C370.691 884.537 370.53 884.71 370.328 884.826C370.127 884.942 369.875 885 369.572 885H369.288ZM375.669 885V879.545H376.507V885H375.669ZM376.096 878.636C375.932 878.636 375.791 878.581 375.673 878.469C375.557 878.358 375.499 878.224 375.499 878.068C375.499 877.912 375.557 877.778 375.673 877.667C375.791 877.556 375.932 877.5 376.096 877.5C376.259 877.5 376.399 877.556 376.515 877.667C376.633 877.778 376.692 877.912 376.692 878.068C376.692 878.224 376.633 878.358 376.515 878.469C376.399 878.581 376.259 878.636 376.096 878.636ZM381.693 881.889V882.67H378.682V881.889H381.693ZM378.881 879.545V885H378.042V879.545H378.881ZM382.332 879.545V885H381.494V879.545H382.332ZM386.079 885.114C385.567 885.114 385.127 884.993 384.758 884.751C384.388 884.51 384.104 884.177 383.905 883.754C383.706 883.33 383.607 882.846 383.607 882.301C383.607 881.747 383.709 881.258 383.912 880.835C384.118 880.408 384.405 880.076 384.772 879.837C385.141 879.595 385.572 879.474 386.064 879.474C386.448 879.474 386.794 879.545 387.101 879.688C387.409 879.83 387.661 880.028 387.858 880.284C388.054 880.54 388.176 880.838 388.224 881.179H387.385C387.322 880.93 387.18 880.71 386.959 880.518C386.742 880.324 386.448 880.227 386.079 880.227C385.752 880.227 385.465 880.312 385.219 880.483C384.975 880.651 384.785 880.889 384.648 881.197C384.513 881.502 384.445 881.861 384.445 882.273C384.445 882.694 384.511 883.061 384.644 883.374C384.779 883.686 384.968 883.929 385.212 884.102C385.458 884.274 385.747 884.361 386.079 884.361C386.296 884.361 386.494 884.323 386.672 884.247C386.849 884.171 387 884.062 387.123 883.92C387.246 883.778 387.333 883.608 387.385 883.409H388.224C388.176 883.731 388.059 884.021 387.872 884.279C387.687 884.535 387.442 884.738 387.137 884.89C386.834 885.039 386.481 885.114 386.079 885.114ZM390.173 881.52H391.736C392.375 881.52 392.864 881.682 393.202 882.006C393.541 882.331 393.71 882.741 393.71 883.239C393.71 883.565 393.634 883.862 393.483 884.13C393.331 884.395 393.109 884.607 392.815 884.766C392.522 884.922 392.162 885 391.736 885H389.449V879.545H390.287V884.219H391.736C392.067 884.219 392.339 884.131 392.552 883.956C392.765 883.781 392.872 883.556 392.872 883.281C392.872 882.992 392.765 882.757 392.552 882.575C392.339 882.392 392.067 882.301 391.736 882.301H390.173V881.52ZM394.986 885V879.545H395.824V881.918H396.378L398.338 879.545H399.418L397.216 882.173L399.446 885H398.366L396.577 882.699H395.824V885H394.986ZM401.195 883.764L403.823 879.545H404.789V885H403.951V880.781L401.337 885H400.357V879.545H401.195V883.764ZM407.162 883.764L409.79 879.545H410.756V885H409.917V880.781L407.304 885H406.324V879.545H407.162V883.764ZM409.236 877.727H410.017C410.017 878.111 409.884 878.424 409.619 878.668C409.354 878.912 408.994 879.034 408.54 879.034C408.092 879.034 407.736 878.912 407.471 878.668C407.208 878.424 407.077 878.111 407.077 877.727H407.858C407.858 877.912 407.909 878.074 408.01 878.214C408.115 878.353 408.291 878.423 408.54 878.423C408.788 878.423 408.966 878.353 409.072 878.214C409.181 878.074 409.236 877.912 409.236 877.727ZM417.319 885.114C416.826 885.114 416.394 884.996 416.023 884.762C415.653 884.528 415.365 884.2 415.156 883.778C414.95 883.357 414.847 882.865 414.847 882.301C414.847 881.733 414.95 881.237 415.156 880.813C415.365 880.389 415.653 880.06 416.023 879.826C416.394 879.592 416.826 879.474 417.319 879.474C417.811 879.474 418.242 879.592 418.612 879.826C418.983 880.06 419.272 880.389 419.478 880.813C419.686 881.237 419.79 881.733 419.79 882.301C419.79 882.865 419.686 883.357 419.478 883.778C419.272 884.2 418.983 884.528 418.612 884.762C418.242 884.996 417.811 885.114 417.319 885.114ZM417.319 884.361C417.693 884.361 418.001 884.265 418.242 884.073C418.484 883.881 418.662 883.629 418.778 883.317C418.894 883.004 418.952 882.666 418.952 882.301C418.952 881.937 418.894 881.597 418.778 881.282C418.662 880.967 418.484 880.713 418.242 880.518C418.001 880.324 417.693 880.227 417.319 880.227C416.945 880.227 416.637 880.324 416.396 880.518C416.154 880.713 415.975 880.967 415.859 881.282C415.743 881.597 415.685 881.937 415.685 882.301C415.685 882.666 415.743 883.004 415.859 883.317C415.975 883.629 416.154 883.881 416.396 884.073C416.637 884.265 416.945 884.361 417.319 884.361ZM425.118 877.5L425.544 878.011C425.378 878.172 425.187 878.285 424.969 878.349C424.751 878.413 424.505 878.452 424.23 878.466C423.956 878.48 423.65 878.494 423.314 878.509C422.935 878.523 422.622 878.615 422.373 878.786C422.124 878.956 421.933 879.202 421.798 879.524C421.663 879.846 421.576 880.241 421.539 880.71H421.61C421.794 880.369 422.05 880.118 422.377 879.957C422.703 879.796 423.054 879.716 423.428 879.716C423.854 879.716 424.237 879.815 424.578 880.014C424.919 880.213 425.189 880.508 425.388 880.898C425.587 881.289 425.686 881.771 425.686 882.344C425.686 882.914 425.584 883.407 425.381 883.821C425.18 884.235 424.897 884.555 424.532 884.78C424.17 885.002 423.745 885.114 423.257 885.114C422.77 885.114 422.342 884.999 421.975 884.769C421.608 884.537 421.323 884.194 421.119 883.739C420.916 883.282 420.814 882.718 420.814 882.045V881.463C420.814 880.249 421.02 879.328 421.432 878.7C421.846 878.073 422.469 877.749 423.3 877.727C423.593 877.718 423.855 877.715 424.085 877.72C424.314 877.725 424.514 877.714 424.685 877.688C424.855 877.662 425 877.599 425.118 877.5ZM423.257 884.361C423.586 884.361 423.869 884.278 424.106 884.112C424.345 883.946 424.529 883.713 424.656 883.413C424.784 883.11 424.848 882.753 424.848 882.344C424.848 881.946 424.783 881.607 424.653 881.328C424.525 881.049 424.342 880.836 424.102 880.689C423.863 880.542 423.577 880.469 423.243 880.469C422.999 880.469 422.78 880.51 422.586 880.593C422.392 880.676 422.226 880.798 422.089 880.959C421.952 881.12 421.845 881.316 421.769 881.548C421.696 881.78 421.657 882.045 421.652 882.344C421.652 882.955 421.795 883.443 422.082 883.81C422.368 884.177 422.76 884.361 423.257 884.361ZM426.485 885V884.219H426.684C426.847 884.219 426.984 884.187 427.093 884.123C427.201 884.057 427.289 883.942 427.355 883.778C427.424 883.613 427.476 883.383 427.512 883.089C427.549 882.794 427.577 882.417 427.593 881.96L427.693 879.545H431.329V885H430.491V880.327H428.488L428.403 882.273C428.384 882.72 428.344 883.114 428.282 883.455C428.223 883.794 428.132 884.078 428.009 884.308C427.888 884.537 427.727 884.71 427.526 884.826C427.325 884.942 427.072 885 426.769 885H426.485ZM432.867 885V879.545H433.705V885H432.867ZM433.293 878.636C433.129 878.636 432.989 878.581 432.87 878.469C432.754 878.358 432.696 878.224 432.696 878.068C432.696 877.912 432.754 877.778 432.87 877.667C432.989 877.556 433.129 877.5 433.293 877.5C433.456 877.5 433.596 877.556 433.712 877.667C433.83 877.778 433.889 877.912 433.889 878.068C433.889 878.224 433.83 878.358 433.712 878.469C433.596 878.581 433.456 878.636 433.293 878.636ZM435.24 885V879.545H436.078V881.918H436.632L438.592 879.545H439.672L437.47 882.173L439.7 885H438.62L436.831 882.699H436.078V885H435.24Z" fill="#99A4B3"/>
<rect width="40" height="40" fill="white" transform="translate(290 851)"/>
</svg>
