<svg width="24" height="24" viewBox="616.0000 22.0000 24 24" fill="none" xmlns="http://www.w3.org/2000/svg">
<path d="M635 27H621C619.895 27 619 27.8954 619 29V41C619 42.1046 619.895 43 621 43H635C636.105 43 637 42.1046 637 41V29C637 27.8954 636.105 27 635 27Z" stroke="#3D75F4" stroke-width="1.5"/>
<path d="M619 32H637" stroke="#3D75F4" stroke-width="1.5"/>
<path d="M624 25V29" stroke="#3D75F4" stroke-width="1.5" stroke-linecap="round"/>
<path d="M632 25V29" stroke="#3D75F4" stroke-width="1.5" stroke-linecap="round"/>
<path d="M628 38.5C628.828 38.5 629.5 37.8284 629.5 37C629.5 36.1716 628.828 35.5 628 35.5C627.172 35.5 626.5 36.1716 626.5 37C626.5 37.8284 627.172 38.5 628 38.5Z" fill="#3D75F4"/>
</svg>
