<svg width="24" height="24" viewBox="616.0000 634.0000 24 24" fill="none" xmlns="http://www.w3.org/2000/svg">
<path d="M622 647H620C619.448 647 619 647.448 619 648V653C619 653.552 619.448 654 620 654H622C622.552 654 623 653.552 623 653V648C623 647.448 622.552 647 622 647Z" stroke="#3D75F4" stroke-width="1.5"/>
<path d="M629 642H627C626.448 642 626 642.448 626 643V653C626 653.552 626.448 654 627 654H629C629.552 654 630 653.552 630 653V643C630 642.448 629.552 642 629 642Z" stroke="#3D75F4" stroke-width="1.5"/>
<path d="M636 638H634C633.448 638 633 638.448 633 639V653C633 653.552 633.448 654 634 654H636C636.552 654 637 653.552 637 653V639C637 638.448 636.552 638 636 638Z" stroke="#3D75F4" stroke-width="1.5"/>
</svg>
