<svg width="24" height="24" viewBox="328.0000 838.0000 24 24" fill="none" xmlns="http://www.w3.org/2000/svg">
<path d="M333 851.5C333.828 851.5 334.5 850.828 334.5 850C334.5 849.172 333.828 848.5 333 848.5C332.172 848.5 331.5 849.172 331.5 850C331.5 850.828 332.172 851.5 333 851.5Z" fill="#3D75F4"/>
<path d="M340 851.5C340.828 851.5 341.5 850.828 341.5 850C341.5 849.172 340.828 848.5 340 848.5C339.172 848.5 338.5 849.172 338.5 850C338.5 850.828 339.172 851.5 340 851.5Z" fill="#3D75F4"/>
<path d="M347 851.5C347.828 851.5 348.5 850.828 348.5 850C348.5 849.172 347.828 848.5 347 848.5C346.172 848.5 345.5 849.172 345.5 850C345.5 850.828 346.172 851.5 347 851.5Z" fill="#3D75F4"/>
</svg>
