<svg width="24" height="24" viewBox="328.0000 22.0000 24 24" fill="none" xmlns="http://www.w3.org/2000/svg">
<path d="M348 27H332C330.895 27 330 27.8954 330 29V39C330 40.1046 330.895 41 332 41H348C349.105 41 350 40.1046 350 39V29C350 27.8954 349.105 27 348 27Z" stroke="#3D75F4" stroke-width="1.5"/>
<path d="M330 32H350" stroke="#3D75F4" stroke-width="1.5"/>
<path d="M337 36H335C334.448 36 334 36.4477 334 37C334 37.5523 334.448 38 335 38H337C337.552 38 338 37.5523 338 37C338 36.4477 337.552 36 337 36Z" fill="#3D75F4"/>
</svg>
