<svg width="24" height="24" viewBox="712.0000 430.0000 24 24" fill="none" xmlns="http://www.w3.org/2000/svg">
<path d="M729 432H719C718.448 432 718 432.448 718 433V439C718 439.552 718.448 440 719 440H729C729.552 440 730 439.552 730 439V433C730 432.448 729.552 432 729 432Z" stroke="#3D75F4" stroke-width="1.5"/>
<path d="M718 447H716C715.45 447 715 446.55 715 446V441C715 440.45 715.45 440 716 440H732C732.55 440 733 440.45 733 441V446C733 446.55 732.55 447 732 447H730" stroke="#3D75F4" stroke-width="1.5"/>
<path d="M729 444H719C718.448 444 718 444.448 718 445V451C718 451.552 718.448 452 719 452H729C729.552 452 730 451.552 730 451V445C730 444.448 729.552 444 729 444Z" stroke="#3D75F4" stroke-width="1.5"/>
</svg>
