<svg width="24" height="24" viewBox="424.0000 22.0000 24 24" fill="none" xmlns="http://www.w3.org/2000/svg">
<path d="M432.5 25H428.5C427.672 25 427 25.6716 427 26.5V32.5C427 33.3284 427.672 34 428.5 34H432.5C433.328 34 434 33.3284 434 32.5V26.5C434 25.6716 433.328 25 432.5 25Z" stroke="#3D75F4" stroke-width="1.5"/>
<path d="M443.5 25H439.5C438.672 25 438 25.6716 438 26.5V28.5C438 29.3284 438.672 30 439.5 30H443.5C444.328 30 445 29.3284 445 28.5V26.5C445 25.6716 444.328 25 443.5 25Z" stroke="#3D75F4" stroke-width="1.5"/>
<path d="M443.5 34H439.5C438.672 34 438 34.6716 438 35.5V41.5C438 42.3284 438.672 43 439.5 43H443.5C444.328 43 445 42.3284 445 41.5V35.5C445 34.6716 444.328 34 443.5 34Z" stroke="#3D75F4" stroke-width="1.5"/>
<path d="M432.5 38H428.5C427.672 38 427 38.6716 427 39.5V41.5C427 42.3284 427.672 43 428.5 43H432.5C433.328 43 434 42.3284 434 41.5V39.5C434 38.6716 433.328 38 432.5 38Z" stroke="#3D75F4" stroke-width="1.5"/>
</svg>
